<?xml version="1.0" encoding="UTF-8"?>
<!DOCTYPE svg PUBLIC "-//W3C//DTD SVG 1.1//EN" "http://www.w3.org/Graphics/SVG/1.1/DTD/svg11.dtd">
<!-- Creator: CorelDRAW X7 -->
<svg xmlns="http://www.w3.org/2000/svg" xml:space="preserve" width="8.5in" height="11in" version="1.1" style="shape-rendering:geometricPrecision; text-rendering:geometricPrecision; image-rendering:optimizeQuality; fill-rule:evenodd; clip-rule:evenodd"
viewBox="0 0 8500 11000"
 xmlns:xlink="http://www.w3.org/1999/xlink">
 <defs>
  <style type="text/css">
   <![CDATA[
    .str0 {stroke:black;stroke-width:3}
    .fil0 {fill:none}
    .fil1 {fill:black}
    .fil2 {fill:white}
   ]]>
  </style>
 </defs>
 <g id="Layer_x0020_1">
  <metadata id="CorelCorpID_0Corel-Layer"/>
  <rect class="fil0" x="2167" y="4302" width="4167" height="2396"/>
 </g>
 <g id="Layer_x0020_1_0">
  <metadata id="CorelCorpID_1Corel-Layer"/>
  <g id="_814954000">
   <path class="fil1 str0" d="M4848 6289c0,0 0,0 0,0 -35,0 -63,28 -63,62 0,34 28,62 63,62l0 0c34,-1 62,-28 62,-62 0,-34 -28,-61 -62,-62l0 0z"/>
   <path class="fil1 str0" d="M3714 6406l0 21c-10,-11 -15,-14 -27,-19 -11,-4 -25,-7 -39,-7l-3 0c-16,0 -31,2 -45,8 -13,5 -25,14 -36,26 -10,10 -18,22 -24,37 -5,13 -8,28 -8,43 0,0 0,0 0,0 0,33 11,61 33,83 22,22 50,33 83,33l1 0c12,0 27,-4 39,-8 11,-4 20,-8 26,-16l0 20 51 0 0 -221 -51 0 0 0z"/>
   <path class="fil1 str0" d="M4300 6435c-20,-16 -45,-26 -73,-27l-2 0c-61,0 -111,50 -111,111 0,61 50,110 111,110l2 0c28,0 53,-11 73,-30l0 27 50 0 0 -288 -50 0 0 97 0 0z"/>
   <path class="fil1 str0" d="M3970 6435c-19,-15 -44,-25 -72,-26l-3 0c-61,0 -110,50 -110,110 0,61 49,111 110,111l3 0c28,-1 53,-11 72,-30l0 27 50 0 0 -288 -50 0 0 96z"/>
   <path class="fil2 str0" d="M4848 6403c0,0 0,0 0,0 -28,0 -51,-23 -51,-52 0,0 0,0 0,0 0,-28 23,-52 51,-51 29,0 52,23 52,52 0,28 -23,51 -52,51l0 0z"/>
   <path class="fil1 str0" d="M4548 6406l0 20c-10,-10 -15,-14 -26,-18 -13,-5 -26,-7 -39,-8l-3 0c-17,0 -31,3 -45,8 -14,6 -26,15 -36,26 -10,10 -18,23 -24,37 -5,14 -8,28 -8,43 0,34 11,61 33,83 21,22 49,33 83,33 13,0 28,-3 39,-8 12,-4 21,-8 26,-16l0 20 51 0 0 -220 -51 0 0 0z"/>
   <path class="fil2 str0" d="M4227 6584c-36,0 -65,-29 -65,-66 0,-36 29,-65 65,-65 37,0 67,29 67,65 0,37 -30,66 -67,66z"/>
   <path class="fil2 str0" d="M3641 6584l0 0c-37,0 -66,-29 -66,-65 0,-36 29,-66 66,-66l0 0c36,0 66,29 66,66 0,36 -30,65 -66,65z"/>
   <polygon class="fil1 str0" points="4048,6392 4101,6392 4101,6339 4048,6339 "/>
   <polygon class="fil1 str0" points="4048,6627 4101,6627 4101,6406 4048,6406 "/>
   <path class="fil1 str0" d="M5369 5350l-723 0c200,-280 486,-438 857,-495 -24,188 -67,347 -134,495z"/>
   <path class="fil1 str0" d="M4505 5351l-582 0c-13,-374 90,-755 291,-984 204,223 309,602 291,984z"/>
   <path class="fil1 str0" d="M3779 5350l-708 0c-65,-150 -106,-304 -126,-496 365,65 647,215 834,496z"/>
   <path class="fil1 str0" d="M5231 5626l-2029 1c-27,-38 -58,-91 -78,-133l2185 0c-21,47 -49,90 -78,132z"/>
   <path class="fil1 str0" d="M4997 5882l-1570 -1c-52,-42 -87,-63 -130,-119l1832 0c-41,45 -88,85 -132,120z"/>
   <path class="fil1 str0" d="M4333 5991l-246 0c35,72 79,133 129,191 49,-59 82,-120 117,-191l0 0z"/>
   <path class="fil1 str0" d="M4385 5992l-27 164c180,-33 337,-85 475,-164l-448 0z"/>
   <path class="fil1 str0" d="M4042 5991l-448 0c134,83 291,139 470,176l-22 -176 0 0z"/>
   <path class="fil1 str0" d="M4866 6361c-2,-2 -4,-4 -7,-6 6,0 11,-3 13,-7 3,-2 5,-7 5,-11 0,-4 -2,-8 -3,-11 -2,-3 -5,-5 -8,-7 -3,-1 -8,-1 -16,-1l-28 0 0 67 13 0 0 -28 3 0c3,0 5,0 7,0 1,1 2,2 3,3 0,1 1,1 1,1 1,1 4,4 7,9l10 15 16 0 -8 -13c-3,-5 -6,-9 -8,-11l0 0z"/>
   <path class="fil2 str0" d="M4858 6345l-21 0 0 -18 13 0c4,0 7,0 8,1 2,0 4,0 5,2 1,1 2,3 2,5 0,2 -1,4 -2,6 -1,0 -2,2 -3,2 -2,1 -5,1 -10,2l8 0z"/>
   <path class="fil1 str0" d="M4730 6492c-33,-5 -61,-6 -61,-24 0,-7 4,-13 10,-18 6,-5 20,-6 30,-6 10,0 21,5 27,11 4,6 8,13 9,20l52 0c0,-18 -9,-38 -24,-48 -14,-11 -33,-24 -59,-24 -25,0 -49,1 -66,14 -17,12 -29,33 -29,50 0,10 -1,23 3,30 4,7 17,23 26,29 14,7 47,11 64,15 15,4 32,5 36,19 3,9 0,17 -8,22 -7,5 -19,9 -32,9 -13,0 -25,-4 -31,-12 -5,-8 -9,-15 -13,-26l-52 0c1,24 14,47 31,61 16,13 38,19 65,19 27,0 51,-5 69,-17 17,-13 27,-36 27,-56 0,-16 -5,-29 -12,-39 -16,-20 -43,-26 -62,-29l0 0z"/>
   <path class="fil2 str0" d="M3893 6584l0 0c-36,0 -66,-29 -66,-65 0,-36 30,-66 66,-66l0 0c36,0 66,29 66,66 0,36 -30,65 -66,65z"/>
   <path class="fil2 str0" d="M4478 6584l0 0c-37,0 -66,-29 -66,-65 0,-36 29,-66 66,-66l0 0c36,0 66,29 66,66 0,36 -30,65 -66,65z"/>
   <path class="fil1 str0" d="M5426 4532c-1,0 -1,-1 -1,-1 -73,0 -131,59 -131,130 0,72 58,130 131,130l1 0c71,-1 129,-58 129,-130 0,-71 -58,-128 -129,-129l0 0z"/>
   <path class="fil2 str0" d="M5426 4770c0,0 0,0 0,0 -60,0 -109,-48 -109,-108 0,0 0,-1 0,-1 0,-58 49,-107 109,-107 60,0 109,49 109,109 0,59 -49,107 -109,107l0 0z"/>
   <path class="fil1 str0" d="M5464 4683c-5,-5 -10,-9 -16,-12 13,-2 22,-7 28,-14 6,-6 10,-15 10,-25 0,-8 -3,-16 -7,-24 -3,-5 -9,-10 -16,-12 -6,-3 -17,-4 -33,-4l-60 0 0 141 29 0 0 -59 5 0c6,0 11,1 15,1 3,1 4,3 7,6 0,0 1,0 1,1 3,2 8,10 16,20l20 31 34 0 -18 -27c-6,-11 -12,-20 -15,-23l0 0z"/>
   <path class="fil2 str0" d="M5446 4647l-43 0 0 -35 27 0c8,0 14,0 16,1 4,0 8,2 11,4 3,3 4,8 4,11 0,4 -1,9 -4,12 -2,1 -5,4 -7,6 -3,0 -10,0 -20,1l16 0z"/>
  </g>
 </g>
</svg>
