<?xml version="1.0" encoding="UTF-8"?>
<!DOCTYPE svg PUBLIC "-//W3C//DTD SVG 1.1//EN" "http://www.w3.org/Graphics/SVG/1.1/DTD/svg11.dtd">
<!-- Creator: CorelDRAW X7 -->
<svg xmlns="http://www.w3.org/2000/svg" xml:space="preserve" width="8.5in" height="11in" version="1.1" style="shape-rendering:geometricPrecision; text-rendering:geometricPrecision; image-rendering:optimizeQuality; fill-rule:evenodd; clip-rule:evenodd"
viewBox="0 0 8500 11000"
 xmlns:xlink="http://www.w3.org/1999/xlink">
 <defs>
  <style type="text/css">
   <![CDATA[
    .fil0 {fill:none}
    .fil1 {fill:black}
    .fil2 {fill:white}
   ]]>
  </style>
 </defs>
 <g id="Layer_x0020_1">
  <metadata id="CorelCorpID_0Corel-Layer"/>
  <rect class="fil0" x="2167" y="4302" width="4167" height="2396"/>
 </g>
 <g id="Layer_x0020_1_0">
  <metadata id="CorelCorpID_1Corel-Layer"/>
  <g id="_815136496">
   <path class="fil1" d="M4232 5362l7 -23 45 0 8 23 -60 0zm-82 -85l-67 0 0 -3c0,-18 22,-26 31,-26 9,0 16,1 26,10 5,5 8,13 10,19z"/>
   <path class="fil1" d="M4054 5277l-137 0c-92,0 -86,-61 -86,-61l735 0c0,0 -6,61 -78,61l-200 0 -15 -35c0,0 -1,-3 -4,-3 -2,0 -4,3 -4,3l-12 35 0 0 -95 0 0 -36c0,-8 -8,-1 -8,-1l-6 9c0,0 -17,-10 -30,-10 -9,0 -45,4 -60,38l0 0 0 0zm-6 23l-127 0c0,0 -6,62 87,62l47 0 0 0c-5,-12 -8,-27 -8,-47 0,-5 0,-10 1,-15l0 0 0 0zm184 62l60 0 -2152 0 2092 0zm94 0l70 0c71,0 78,-62 78,-62l-175 0 -1 0 28 62 0 0zm-73 -62l15 0 0 0 13 32 -39 0 11 -32 0 0zm-8 0l-162 0 0 56c0,0 1,3 1,6l0 0 57 0 0 -22 -17 0 0 -8 68 0 0 7 -18 0 0 23 49 0 0 0 22 -62 0 0 0 0zm-148 84l37 0 0 0c0,0 -4,9 -18,9 -14,0 -19,-9 -19,-9l0 0z"/>
   <path class="fil1" d="M5982 6028l1 -117c11,56 58,108 116,108 43,0 81,-34 81,-83 0,-55 -45,-66 -86,-81 -11,-4 -22,-8 -33,-12 -51,-16 -76,-58 -76,-114 0,-62 43,-105 100,-108 44,-3 62,28 76,23 15,-4 34,-18 34,-18l0 112c-21,-65 -57,-103 -112,-103 -35,0 -68,28 -68,68 0,45 29,50 63,60 14,4 25,8 34,11 11,4 24,8 36,14 46,24 62,63 62,116 0,75 -45,130 -115,130 -26,0 -60,-26 -78,-25 -17,2 -35,19 -35,19l0 0z"/>
   <polygon class="fil1" points="5824,5629 5824,5644 5876,5644 5876,5888 5715,5629 5575,5629 5575,5644 5629,5644 5629,6010 5532,6010 5407,5621 5389,5621 5259,6010 5214,6010 5214,6025 5331,6025 5331,6010 5275,6010 5309,5905 5427,5905 5460,6010 5403,6010 5403,6025 5700,6025 5700,6010 5646,6010 5646,5656 5877,6033 5894,6033 5894,5644 5948,5644 5948,5629 "/>
   <polygon class="fil2" points="5315,5891 5370,5725 5421,5891 "/>
   <path class="fil1" d="M4992 5644l0 170c53,0 98,-72 98,-72l0 165c-5,-66 -39,-80 -98,-78l0 181 78 0c71,0 108,-112 108,-112l0 127 -310 0 0 -15 55 0 0 -366 -55 0 0 -15 302 0 0 107c-11,-57 -45,-79 -72,-87 -14,-4 -30,-5 -48,-5l-58 0z"/>
   <path class="fil1" d="M4653 6012c5,10 12,12 19,12 29,0 36,-27 36,-53l0 -327 -59 0 0 -15 181 0 0 15 -53 0 0 244c0,35 4,52 -9,82 -18,42 -53,69 -97,69 -20,0 -31,-3 -49,-12 -15,-8 -27,-35 -27,-53l59 0c0,0 -5,31 -1,38 0,0 -4,-7 0,0z"/>
   <polygon class="fil1" points="4367,5644 4367,5629 4068,5629 4068,5644 4120,5644 4120,5888 3959,5629 3819,5629 3819,5644 3872,5644 3872,6010 3778,6010 3653,5621 3634,5621 3504,6010 3406,6010 3406,5644 3460,5644 3460,5629 3322,5629 3243,5900 3167,5629 3026,5629 3026,5644 3080,5644 3080,6010 3026,6010 3026,6025 3151,6025 3151,6010 3098,6010 3098,5654 3099,5654 3207,6025 3226,6025 3335,5654 3337,5654 3337,6010 3283,6010 3283,6025 3576,6025 3576,6010 3520,6010 3554,5905 3672,5905 3705,6010 3648,6010 3648,6025 3943,6025 3943,6010 3890,6010 3890,5656 4121,6033 4138,6033 4138,5644 4243,5644 4243,6010 4189,6010 4189,6025 4367,6025 4367,6010 4313,6010 4313,5644 "/>
   <polygon class="fil2" points="3560,5891 3615,5725 3666,5891 "/>
   <path class="fil1" d="M2771 6010l54 0 0 15 -178 0 0 -15 54 0 0 -366 -54 0 0 -15 183 0c59,0 130,8 130,90 0,67 -65,90 -115,96l0 2c85,14 104,64 104,160 0,21 1,44 54,34l0 14c-16,4 -31,7 -47,7 -55,0 -84,-30 -84,-90 0,-50 -7,-86 -21,-99 -16,-15 -33,-22 -50,-22l-30 0 0 189z"/>
   <path class="fil2" d="M2771 5806l45 0c49,0 69,-25 69,-78 0,-67 -18,-84 -67,-84l-47 0 0 162 0 0z"/>
   <polygon class="fil1" points="2260,6025 2260,6010 2304,6010 2434,5621 2453,5621 2578,6010 2621,6010 2621,6025 2449,6025 2449,6010 2505,6010 2472,5905 2354,5905 2320,6010 2376,6010 2376,6025 "/>
   <polygon class="fil2" points="2360,5891 2467,5891 2415,5725 "/>
   <path class="fil1" d="M4262 5029l-137 0c0,0 -11,-58 57,-58l84 0c0,0 33,3 47,19 15,16 19,29 19,29l-47 0c0,0 -7,10 -23,10 0,0 16,0 0,0z"/>
   <path class="fil1" d="M4067 5132l-349 0c0,0 -6,61 86,61l787 0c71,0 78,-61 78,-61l-325 0 -37 32 -20 -32 -171 0 -8 37 -41 -37 0 0z"/>
   <path class="fil1" d="M4367 5109l316 0c72,0 78,-62 78,-62l-335 0 -59 62 0 0z"/>
   <polygon class="fil1" points="4281,5109 4116,5109 4122,5047 4250,5047 "/>
   <path class="fil1" d="M3981 5047l-357 0c0,0 -7,62 86,62l337 0 -66 -62 0 0z"/>
   <path class="fil1" d="M4513 4961l283 0c0,0 33,2 33,31 0,29 -29,33 -29,33l-353 0 66 -64z"/>
   <path class="fil1" d="M3893 4961l-341 0c0,0 0,64 92,64l314 0 -65 -64 0 0z"/>
  </g>
 </g>
</svg>
