<?xml version="1.0" encoding="UTF-8"?>
<!DOCTYPE svg PUBLIC "-//W3C//DTD SVG 1.1//EN" "http://www.w3.org/Graphics/SVG/1.1/DTD/svg11.dtd">
<!-- Creator: CorelDRAW X7 -->
<svg xmlns="http://www.w3.org/2000/svg" xml:space="preserve" width="8.5in" height="11in" version="1.1" style="shape-rendering:geometricPrecision; text-rendering:geometricPrecision; image-rendering:optimizeQuality; fill-rule:evenodd; clip-rule:evenodd"
viewBox="0 0 8500 11000"
 xmlns:xlink="http://www.w3.org/1999/xlink">
 <defs>
  <style type="text/css">
   <![CDATA[
    .fil0 {fill:none}
    .fil1 {fill:black}
   ]]>
  </style>
 </defs>
 <g id="Layer_x0020_1">
  <metadata id="CorelCorpID_0Corel-Layer"/>
  <rect class="fil0" x="2167" y="4302" width="4167" height="2396"/>
  <path class="fil1" d="M2570 5767c-140,0 -260,-127 -260,-266 0,-138 118,-268 259,-268 93,0 160,45 215,116l69 0c-21,-37 -43,-71 -76,-98 -58,-46 -133,-74 -207,-74 -177,0 -322,147 -322,324 0,177 147,322 323,322 72,0 143,-27 200,-71 35,-29 60,-66 84,-104l-68 0c-55,71 -124,119 -217,119l0 0zm711 -338c-43,-56 -102,-91 -174,-91 -130,0 -237,106 -237,236 0,130 107,237 237,237 76,0 128,-32 174,-90l0 79 57 0 0 -451 -57 0 0 80 0 0zm-177 330c-100,0 -178,-87 -178,-184 0,-98 78,-185 178,-185 100,0 177,87 177,185 0,97 -78,184 -177,184zm302 41l61 0 0 -610 -61 0 0 610zm290 -71l-154 -380 -60 0 184 451 61 0 183 -451 -59 0 -155 380zm239 71l61 0 0 -451 -61 0 0 451 0 0zm0 -509l61 0 0 -101 -61 0 0 101 0 0zm322 47c-57,0 -98,30 -135,70l0 -59 -56 0 0 451 59 0 0 -274c0,-73 60,-136 133,-136 91,0 137,80 137,162l0 248 56 0 0 -248c0,-117 -68,-214 -194,-214l0 0zm757 -148l-276 350 0 -350 -59 0 0 610 59 0 0 -167 78 -97 199 264 76 0 -237 -313 237 -297 -77 0zm99 610l59 0 0 -610 -59 0 0 610zm548 -337c-41,-77 -123,-125 -210,-125 -129,0 -238,108 -238,237 0,130 110,236 239,236 62,0 122,-25 167,-67 27,-26 43,-58 57,-91l-63 0c-32,62 -89,106 -162,106 -44,0 -88,-18 -121,-49 -34,-31 -49,-69 -56,-114l416 0c0,-47 -6,-92 -29,-133zm-385 81c18,-85 85,-154 176,-154 77,0 159,47 177,154l-353 0zm458 256l60 0 0 -451 -60 0 0 451 0 0zm0 -507l60 0 0 -103 -60 0 0 103zm322 45c-58,0 -99,30 -137,70l0 -59 -57 0 0 451 60 0 0 -274c0,-74 61,-136 135,-136 91,0 139,80 139,162l0 248 56 0 0 -248c0,-117 -70,-214 -196,-214l0 0z"/>
 </g>
</svg>
