<?xml version="1.0" encoding="UTF-8"?>
<!DOCTYPE svg PUBLIC "-//W3C//DTD SVG 1.1//EN" "http://www.w3.org/Graphics/SVG/1.1/DTD/svg11.dtd">
<!-- Creator: CorelDRAW X7 -->
<svg xmlns="http://www.w3.org/2000/svg" xml:space="preserve" width="8.5in" height="11in" version="1.1" style="shape-rendering:geometricPrecision; text-rendering:geometricPrecision; image-rendering:optimizeQuality; fill-rule:evenodd; clip-rule:evenodd"
viewBox="0 0 8500 11000"
 xmlns:xlink="http://www.w3.org/1999/xlink">
 <defs>
  <style type="text/css">
   <![CDATA[
    .fil0 {fill:none}
    .fil1 {fill:black}
   ]]>
  </style>
 </defs>
 <g id="Layer_x0020_1">
  <metadata id="CorelCorpID_0Corel-Layer"/>
  <rect class="fil0" x="2167" y="4302" width="4167" height="2396"/>
  <g id="_815144112">
   <path class="fil1" d="M3456 5085c-14,93 -42,319 18,542 12,30 41,22 53,8 4,-6 44,-44 44,-44 13,-19 27,-13 37,0 10,14 38,58 79,60 42,2 107,-48 133,-67 17,33 39,65 75,63 35,-2 69,-28 99,-60 21,26 45,54 73,52 28,-2 79,-32 128,-77 20,-22 42,-12 56,10 14,21 33,57 59,57 26,0 63,-36 75,-45 12,-10 24,-18 38,-2l29 27c18,18 56,14 83,-12 28,-25 34,-33 46,-33 12,0 18,16 30,27 11,12 102,91 223,-31 2,61 -12,405 -12,455 0,23 28,31 67,23 40,-8 60,-19 58,-77 -2,-57 -10,-340 -10,-340 6,-45 45,-121 87,-122 41,-2 22,49 2,49 -20,0 -42,10 -42,28 0,17 6,69 123,69 117,0 130,-38 162,-52 20,38 79,97 243,-7 34,39 97,88 166,39 22,-18 44,-59 36,-95 -6,-14 -2,-20 8,-20l65 0c14,0 38,10 46,50 8,39 35,73 57,71 22,-2 63,-36 87,-59 20,27 105,156 261,-60 14,-19 -8,-29 -20,-15 -12,13 -47,35 -77,37 -30,2 -65,-28 -93,-65 -28,-38 -59,-24 -79,6 -14,16 -22,31 -38,49 -9,-18 -21,-55 -41,-69 -20,-14 -36,-16 -83,-4 -48,12 -101,18 -154,20 -30,-2 -22,12 -20,24 2,11 24,61 -16,63 -39,2 -36,-58 -8,-89 14,-14 -6,-44 -28,-32 -21,12 -35,18 -53,46 -18,27 -55,69 -117,71 -61,2 -43,-69 -41,-101 0,-18 -12,-34 -44,-26 -31,8 -73,4 -69,91 -22,32 -71,52 -111,46 -11,-2 -15,-8 -11,-22 4,-14 13,-91 -46,-111 -59,-20 -105,8 -134,34 -16,8 -20,0 -20,-14l2 -73c0,-34 -67,-42 -77,-2 -10,39 -22,117 -81,144 -60,28 -79,-8 -111,-47 -32,-40 -63,-38 -99,-2l-36 33c-13,12 -21,8 -33,-9 -12,-18 -20,-42 -42,-44 -21,-2 -25,6 -41,18l-46 35c-17,14 -21,14 -39,-9 0,0 -30,-50 -59,-50 -30,0 -40,18 -58,32 0,0 -45,31 -61,45 -16,14 -61,42 -105,-24 -16,-23 -43,-41 -63,-7 -20,33 -52,85 -75,69 -24,-16 15,-62 45,-65 30,-4 12,-42 -18,-44 -29,-2 -77,18 -99,44 -21,25 -57,55 -92,53 -36,-2 -44,-30 -62,-67 -18,-38 -49,-34 -73,-14 -24,20 -30,26 -47,47 -18,22 -18,10 -20,-4 -2,-13 -14,-269 6,-433 8,-41 -77,-55 -95,8l0 0z"/>
   <path class="fil1" d="M5326 5390c34,0 62,-28 62,-62 0,-33 -28,-61 -62,-61 -34,0 -61,28 -61,61 0,34 27,62 61,62zm-1969 63c-8,6 -231,81 -354,89l0 -459c71,2 206,32 291,64 19,9 61,-2 18,-46 -101,-81 -260,-142 -469,-142 -210,0 -585,116 -585,354 0,237 300,356 587,356 202,0 389,-74 526,-204 22,-22 -6,-18 -14,-12l0 0zm-678 89c-171,-35 -292,-124 -292,-227 0,-104 121,-192 292,-227l0 454zm3471 -148c-16,0 -29,12 -29,28 0,15 13,28 29,28 16,0 29,-13 29,-28 0,-16 -13,-28 -29,-28zm0 50c-13,0 -24,-10 -24,-22 0,-13 11,-23 24,-23 13,0 23,10 23,23 0,12 -10,22 -23,22z"/>
   <path class="fil1" d="M6165 5414c0,-2 -2,-5 -4,-7 -2,-1 -5,-1 -8,-1l-14 0 0 31 5 0 0 -14 6 0 9 14 5 0 -10 -14c6,0 11,-3 11,-9zm-16 5l-5 0 0 -9 8 0c4,0 8,0 8,4 0,6 -6,5 -11,5l0 0z"/>
  </g>
 </g>
</svg>
