<?xml version="1.0" encoding="UTF-8"?>
<!DOCTYPE svg PUBLIC "-//W3C//DTD SVG 1.1//EN" "http://www.w3.org/Graphics/SVG/1.1/DTD/svg11.dtd">
<!-- Creator: CorelDRAW X7 -->
<svg xmlns="http://www.w3.org/2000/svg" xml:space="preserve" width="8.5in" height="11in" version="1.1" style="shape-rendering:geometricPrecision; text-rendering:geometricPrecision; image-rendering:optimizeQuality; fill-rule:evenodd; clip-rule:evenodd"
viewBox="0 0 8500 11000"
 xmlns:xlink="http://www.w3.org/1999/xlink">
 <defs>
  <style type="text/css">
   <![CDATA[
    .fil0 {fill:none}
    .fil1 {fill:black}
    .fil2 {fill:white}
   ]]>
  </style>
 </defs>
 <g id="Layer_x0020_1">
  <metadata id="CorelCorpID_0Corel-Layer"/>
  <rect class="fil0" x="2167" y="4302" width="4167" height="2396"/>
  <g id="_817985600">
   <path class="fil1" d="M4083 5958l-343 0 0 -370 244 0 0 -203 -244 0 0 -343 343 0 0 -203 -582 0 0 1322 582 0 0 -203zm1479 0l-343 0 0 -370 244 0 0 -203 -244 0 0 -343 343 0 0 -203 -581 0 0 1322 581 0 0 -203zm135 -1119l0 1322 582 0 0 -203 -343 0 0 -1119 -239 0zm-2628 0l239 0 0 1322 -239 0 0 -1322zm-303 95c-58,-55 -171,-93 -302,-95l-243 0 0 1322 288 0c157,0 223,-56 275,-113 93,-112 107,-244 109,-582 -2,-441 -72,-474 -127,-532z"/>
   <path class="fil2" d="M2636 5728c2,217 -83,231 -176,230l0 -916c159,1 178,100 176,208 0,0 6,465 0,478z"/>
   <path class="fil1" d="M4394 5782l-216 0c-2,133 -2,408 325,406 326,2 342,-278 342,-348 0,-71 7,-228 -203,-396 -81,-69 -144,-114 -207,-185 -59,-75 -45,-117 -45,-149 0,-29 28,-97 94,-99 65,2 103,68 100,198l225 0c8,-126 -32,-396 -320,-397 -290,1 -327,262 -334,348 -3,88 12,233 262,432 81,69 203,144 207,262 0,94 -63,138 -99,140 -39,-2 -131,-2 -131,-212l0 0z"/>
  </g>
 </g>
</svg>
