<?xml version="1.0" encoding="UTF-8"?>
<!DOCTYPE svg PUBLIC "-//W3C//DTD SVG 1.1//EN" "http://www.w3.org/Graphics/SVG/1.1/DTD/svg11.dtd">
<!-- Creator: CorelDRAW X7 -->
<svg xmlns="http://www.w3.org/2000/svg" xml:space="preserve" width="8.5in" height="11in" version="1.1" style="shape-rendering:geometricPrecision; text-rendering:geometricPrecision; image-rendering:optimizeQuality; fill-rule:evenodd; clip-rule:evenodd"
viewBox="0 0 8500 11000"
 xmlns:xlink="http://www.w3.org/1999/xlink">
 <defs>
  <style type="text/css">
   <![CDATA[
    .str0 {stroke:black;stroke-width:3}
    .fil0 {fill:none}
    .fil1 {fill:black}
    .fil2 {fill:white}
   ]]>
  </style>
 </defs>
 <g id="Layer_x0020_1">
  <metadata id="CorelCorpID_0Corel-Layer"/>
  <rect class="fil0" x="2167" y="4302" width="4167" height="2396"/>
  <g id="_825774912">
   <path class="fil1" d="M5709 6301c-7,-7 -17,-12 -28,-12 0,0 0,0 -1,0 -11,0 -20,4 -28,12 -8,8 -12,18 -12,29 0,0 0,0 0,0 0,11 4,21 12,29 7,8 17,12 28,12 12,0 21,-4 29,-12 8,-8 12,-18 12,-29 0,0 0,0 0,0 0,-11 -4,-21 -12,-29l0 0z"/>
   <path class="fil1" d="M2276 4629l378 1657c379,-219 1162,-296 1596,1 436,-296 1217,-220 1596,-1l378 -1657 -3948 0z"/>
   <path class="fil2" d="M2766 5032l0 623 436 0 0 -146 -227 0 0 -477 -209 0zm1100 1l233 0 156 419 152 -419 229 0 -262 621 -243 0 -265 -621zm828 0l0 622 208 0 0 -622 -208 0zm-1140 -11c-191,0 -326,36 -326,326 0,238 58,336 334,336 295,0 300,-139 309,-205l-209 0c0,53 -52,76 -107,76 -16,0 -115,13 -115,-146l431 0c2,-23 0,-111 -2,-125 -15,-140 -28,-263 -315,-262l0 0zm1901 1c170,0 278,63 292,201l-216 0c0,-30 -22,-85 -84,-85 -62,0 -96,20 -96,66 0,48 28,60 50,66 11,3 140,21 184,27 32,4 164,11 162,145 -3,135 -87,219 -297,219 -211,0 -311,-73 -311,-192l216 0c1,42 24,73 92,73 67,0 102,-29 102,-75 0,-35 -31,-54 -64,-57 -23,-2 -164,-3 -231,-32 -60,-27 -129,-67 -118,-170 14,-119 100,-186 319,-186l0 0zm-326 20c1,47 -3,79 -67,114 4,-9 17,-29 15,-42 -11,4 -22,7 -33,7 0,0 -1,0 -1,0 -47,0 -86,-36 -86,-79 0,-43 39,-78 86,-78 48,0 86,35 86,78l0 0z"/>
   <path class="fil2 str0" d="M5706 6356c-7,7 -15,10 -25,10 -10,0 -18,-3 -25,-10 -6,-7 -10,-15 -10,-25 0,0 0,0 0,0 0,-10 3,-18 10,-25 7,-7 15,-10 25,-10 10,0 18,3 25,10 7,7 10,15 10,25 0,10 -3,18 -10,25l0 0z"/>
   <path class="fil1" d="M3445 5304l223 0c2,-85 -31,-131 -113,-131 -75,0 -110,47 -110,131z"/>
   <path class="fil1" d="M5699 6352c-1,-1 -1,-1 -1,-2 0,-2 0,-3 0,-4l0 -3c0,-3 -1,-5 -2,-7 -2,-3 -5,-4 -8,-4 2,-1 4,-1 6,-3 3,-1 5,-4 5,-8 0,-6 -3,-10 -7,-12 -3,-1 -7,-1 -12,-1l-16 0 0 44 8 0 0 -17 6 0c4,0 7,0 9,1 3,2 4,5 4,10l0 4 0 1 0 1c0,0 0,0 0,0l8 0 0 0z"/>
   <path class="fil2" d="M5685 6328c-2,0 -4,1 -7,1 0,0 0,0 -1,0l-7 0 0 -17 7 0c4,0 8,1 10,2 2,1 3,3 3,7 0,3 -2,5 -5,7l0 0z"/>
  </g>
 </g>
</svg>
