<?xml version="1.0" encoding="UTF-8"?>
<!DOCTYPE svg PUBLIC "-//W3C//DTD SVG 1.1//EN" "http://www.w3.org/Graphics/SVG/1.1/DTD/svg11.dtd">
<!-- Creator: CorelDRAW X7 -->
<svg xmlns="http://www.w3.org/2000/svg" xml:space="preserve" width="8.5in" height="11in" version="1.1" style="shape-rendering:geometricPrecision; text-rendering:geometricPrecision; image-rendering:optimizeQuality; fill-rule:evenodd; clip-rule:evenodd"
viewBox="0 0 8500 11000"
 xmlns:xlink="http://www.w3.org/1999/xlink">
 <defs>
  <style type="text/css">
   <![CDATA[
    .fil0 {fill:none}
    .fil1 {fill:black}
   ]]>
  </style>
 </defs>
 <g id="Layer_x0020_1">
  <metadata id="CorelCorpID_0Corel-Layer"/>
  <rect class="fil0" x="2167" y="4302" width="4167" height="2396"/>
  <g id="_815134384">
   <path class="fil1" d="M6288 5503c0,-193 -175,-342 -389,-342 -208,0 -390,142 -390,331 0,178 143,321 336,344l0 -108c-126,-21 -222,-115 -222,-229 0,-128 123,-233 274,-233 151,0 274,105 274,233 0,113 -94,207 -219,228l0 108c186,-22 336,-160 336,-332l0 0zm-1236 231c-119,0 -221,-64 -259,-154l-121 0c40,155 198,259 386,259 44,0 94,-4 136,-15 94,-23 197,-84 197,-181l0 -171 -341 0 0 108 232 0 0 49c0,54 -81,85 -130,96 -27,6 -61,9 -89,9l-11 0 0 0zm230 -376c-51,-53 -131,-87 -220,-87 -143,0 -261,87 -280,201l-119 0c16,-177 196,-307 400,-307 122,0 230,46 304,118l-85 75 0 0zm-1281 -178l-110 0 0 644 108 0 0 -481 445 481 80 0 0 -78 -523 -566 0 0zm523 0l-108 0 0 313 108 109 0 -422 0 0zm-952 445l100 199 130 0 -327 -644 -118 0 0 0 164 342 -218 0 57 -112 -59 -121 -276 535 122 0 103 -199 322 0 0 0zm-1250 -445l-109 0 0 644 108 0 0 -443 246 394 63 -101 -308 -494 0 0zm303 302l63 99 125 -200 0 443 108 0 0 -644 -110 0 -186 302z"/>
  </g>
 </g>
</svg>
