<?xml version="1.0" encoding="UTF-8"?>
<!DOCTYPE svg PUBLIC "-//W3C//DTD SVG 1.1//EN" "http://www.w3.org/Graphics/SVG/1.1/DTD/svg11.dtd">
<!-- Creator: CorelDRAW X7 -->
<svg xmlns="http://www.w3.org/2000/svg" xml:space="preserve" width="8.5in" height="11in" version="1.1" style="shape-rendering:geometricPrecision; text-rendering:geometricPrecision; image-rendering:optimizeQuality; fill-rule:evenodd; clip-rule:evenodd"
viewBox="0 0 8500 11000"
 xmlns:xlink="http://www.w3.org/1999/xlink">
 <defs>
  <style type="text/css">
   <![CDATA[
    .fil0 {fill:none}
    .fil1 {fill:black}
   ]]>
  </style>
 </defs>
 <g id="Layer_x0020_1">
  <metadata id="CorelCorpID_0Corel-Layer"/>
  <rect class="fil0" x="2167" y="4302" width="4167" height="2396"/>
  <g id="_824398752">
   <path class="fil1" d="M2985 5723c-31,0 -54,21 -54,52 0,31 23,52 54,52 30,0 54,-21 54,-52 0,-31 -24,-52 -54,-52zm0 89c-22,0 -38,-15 -38,-37 0,-21 16,-37 38,-37 21,0 37,16 37,37 0,21 -16,37 -37,37zm525 -271l-263 0 30 -457 -171 457 -244 0 387 -1032 260 0 -30 463 174 -463 244 0 -387 1032zm31 0l388 -1032 244 0 -388 1032 -244 0z"/>
   <path class="fil1" d="M2834 5185c-341,401 -662,933 -378,1179 275,237 619,97 854,3 234,-94 2827,-1220 2827,-1220 26,-13 21,-28 -10,-21 -13,4 -2824,765 -2824,765 -356,100 -763,-118 -469,-706z"/>
   <path class="fil1" d="M2994 5779c7,-1 13,-4 13,-15 0,-13 -9,-17 -23,-17l-21 0 0 56 14 0 0 -24 2 0 13 24 16 0 -14 -24zm-9 -9l-8 0 0 -13 6 0c5,0 9,0 9,6 0,6 -2,7 -7,7zm2452 -1265c-30,0 -54,22 -54,53 0,30 24,52 54,52 30,0 54,-22 54,-52 0,-31 -23,-53 -54,-53zm0 90c-21,0 -37,-16 -37,-37 0,-22 16,-38 37,-38 22,0 38,17 38,38 0,21 -16,37 -38,37z"/>
   <path class="fil1" d="M5447 4561c7,0 13,-4 13,-15 0,-13 -9,-16 -24,-16l-21 0 0 56 14 0 0 -24 3 0 13 24 16 0 -14 -25zm-10 -9l-8 0 0 -13 7 0c4,0 9,1 9,6 0,6 -3,7 -8,7l0 0zm-160 129l65 -172 -744 0 -256 309 118 -309 -247 0 -384 1032 244 0 164 -432 11 432 749 -2 71 -198 -285 0 94 -251 234 0 73 -192 -235 0 80 -217 248 0zm-787 791l-16 -538 369 -405 -353 943z"/>
  </g>
 </g>
</svg>
