<?xml version="1.0" encoding="UTF-8"?>
<!DOCTYPE svg PUBLIC "-//W3C//DTD SVG 1.1//EN" "http://www.w3.org/Graphics/SVG/1.1/DTD/svg11.dtd">
<!-- Creator: CorelDRAW X7 -->
<svg xmlns="http://www.w3.org/2000/svg" xml:space="preserve" width="8.5in" height="11in" version="1.1" style="shape-rendering:geometricPrecision; text-rendering:geometricPrecision; image-rendering:optimizeQuality; fill-rule:evenodd; clip-rule:evenodd"
viewBox="0 0 8500 11000"
 xmlns:xlink="http://www.w3.org/1999/xlink">
 <defs>
  <style type="text/css">
   <![CDATA[
    .fil0 {fill:none}
    .fil1 {fill:black}
    .fil2 {fill:white}
   ]]>
  </style>
 </defs>
 <g id="Layer_x0020_1">
  <metadata id="CorelCorpID_0Corel-Layer"/>
  <rect class="fil0" x="2167" y="4302" width="4167" height="2396"/>
  <g id="_981604544">
   <path class="fil1" d="M2766 6260l-271 0 0 246 -269 0 0 -977 541 0c49,0 87,39 87,88l0 555c0,0 0,0 0,1 0,48 -40,87 -88,87 0,0 0,0 0,0l0 0z"/>
   <path class="fil1" d="M5101 6506l0 -245 -91 0 0 245 -268 0 0 -890c0,-48 39,-87 87,-87l453 0c48,0 87,39 87,87 0,0 0,0 0,0l0 890 -268 0z"/>
   <path class="fil2" d="M2623 5689c0,0 0,0 0,0 0,-26 -20,-46 -45,-46l-46 0 0 494 46 0c23,0 45,-19 45,-46l0 -314 0 -88z"/>
   <path class="fil1" d="M4157 5529l-406 0c-48,0 -87,39 -87,87 0,0 0,0 0,0l0 890 268 0 0 -816c0,-25 21,-45 45,-45 0,0 1,0 1,0 25,0 45,19 45,44l0 817 268 0 0 -817c0,-25 20,-44 45,-44 25,0 46,20 46,45l0 816 268 0 0 -890c0,0 0,0 0,0 0,-48 -39,-87 -87,-87l-406 0z"/>
   <path class="fil1" d="M3258 6389c-24,-1 -45,-21 -45,-46l0 -814 -268 0 0 897c0,44 35,80 79,80l469 0c44,0 79,-36 79,-80l0 -897 -268 0 0 814c0,25 -21,45 -46,46l0 0z"/>
   <path class="fil1" d="M4408 4501c-14,2 -26,51 -52,76 -19,18 -42,17 -54,40 -5,8 -4,23 -9,37 -10,27 -47,30 -47,60 0,33 30,39 57,62 21,19 23,32 48,41 22,7 54,-17 83,-8 23,7 46,12 51,36 5,23 0,57 -29,53 -9,-1 -51,-15 -103,-9 -62,7 -133,27 -140,96 -4,39 44,85 90,75 32,-6 17,-44 35,-62 22,-23 152,82 272,82 51,0 89,-13 126,-52 4,-3 8,-9 13,-10 5,1 14,6 17,8 97,78 170,234 527,236 50,0 107,24 153,66 42,39 66,99 90,159 36,91 100,180 196,278 6,6 85,68 92,72 1,1 7,15 5,23 -3,59 -11,231 117,238 31,2 23,-20 23,-35 0,-30 -6,-60 10,-90 22,-42 -46,-62 -44,-153 2,-68 -55,-56 -84,-108 -17,-30 -32,-46 -31,-83 7,-206 -44,-342 -69,-375 -19,-25 -36,-35 -18,-47 107,-70 131,-136 131,-136 57,-133 108,-255 179,-309 14,-11 51,-39 73,-49 66,-31 100,-50 119,-69 31,-29 55,-90 26,-128 -37,-46 -99,-9 -126,7 -197,117 -226,323 -294,441 -54,94 -142,163 -221,169 -60,4 -123,-8 -187,-35 -154,-68 -239,-156 -259,-171 -41,-32 -364,-348 -625,-361 0,0 -32,-65 -40,-66 -19,-3 -39,39 -53,43 -13,5 -35,-44 -48,-42l0 0z"/>
   <path class="fil2" d="M5105 5155l0 527c0,-24 -20,-44 -45,-44 0,0 0,0 0,0 -25,0 -46,20 -46,45l0 450 91 0 0 -978z"/>
  </g>
 </g>
</svg>
