<?xml version="1.0" encoding="UTF-8"?>
<!DOCTYPE svg PUBLIC "-//W3C//DTD SVG 1.1//EN" "http://www.w3.org/Graphics/SVG/1.1/DTD/svg11.dtd">
<!-- Creator: CorelDRAW X7 -->
<svg xmlns="http://www.w3.org/2000/svg" xml:space="preserve" width="8.5in" height="11in" version="1.1" style="shape-rendering:geometricPrecision; text-rendering:geometricPrecision; image-rendering:optimizeQuality; fill-rule:evenodd; clip-rule:evenodd"
viewBox="0 0 8500 11000"
 xmlns:xlink="http://www.w3.org/1999/xlink">
 <defs>
  <style type="text/css">
   <![CDATA[
    .fil0 {fill:none}
    .fil1 {fill:#0C0E0F}
    .fil2 {fill:white}
   ]]>
  </style>
 </defs>
 <g id="Layer_x0020_1">
  <metadata id="CorelCorpID_0Corel-Layer"/>
  <rect class="fil0" x="2167" y="4302" width="4167" height="2396"/>
  <g id="_824385632">
   <path class="fil1" d="M5415 5813l0 44 12 0 0 -17 6 0c6,0 9,5 12,17l12 0c-3,-12 -6,-17 -9,-17l0 -3c3,-3 6,-6 6,-12 0,-3 0,-6 -3,-9 -3,-3 -6,-3 -9,-3l-27 0zm12 18l0 -9 12 0c0,0 3,0 3,3l0 6 -15 0 0 0zm-1047 239c24,0 33,-3 39,-12 3,-3 3,-9 3,-15 0,-6 0,-12 -6,-15 -3,-6 -12,-9 -36,-9l-203 0 0 51 203 0zm1327 185c-86,0 -119,-12 -143,-33 -21,-21 -21,-48 -21,-77l0 -87c0,-27 0,-54 21,-75 24,-21 57,-33 143,-33l281 0c90,0 123,12 147,33 18,21 21,48 21,75l0 87c0,29 -3,56 -21,77 -24,21 -57,33 -147,33l-281 0zm239 -191c0,-12 -3,-24 -8,-30 -12,-9 -24,-15 -60,-15l-126 0 0 123c0,12 0,20 9,29 9,9 24,15 60,15l125 0 0 -122zm-3198 122l0 -236 209 0 0 305 -448 0c-87,0 -120,-12 -144,-36 -21,-18 -21,-44 -21,-74l0 -195 209 0 0 192c0,12 0,21 9,29 9,9 24,15 60,15l126 0 0 0zm648 69l0 -191c0,-12 -3,-24 -8,-33 -9,-9 -24,-12 -60,-12l-27 0 0 236 -171 0 0 -305 536 0c86,0 119,12 143,36 21,18 21,45 21,75l0 194 -170 0 0 -191c0,-12 0,-24 -9,-33 -9,-9 -24,-12 -60,-12l-24 0 0 236 -171 0zm1884 -134c45,-6 69,-12 84,-27 26,-30 29,-78 -3,-108 -21,-24 -57,-36 -144,-36l-439 0 0 305 170 0 0 -110 84 0c86,0 149,17 191,110l194 0c-42,-90 -101,-122 -137,-134zm-87 -57c-6,9 -15,12 -42,12l-203 0 0 -60 203 0c27,0 36,6 42,12 6,6 6,12 6,18 0,6 0,12 -6,18l0 0zm-804 122c24,0 33,-3 39,-12 3,-3 6,-9 6,-14 0,-6 -3,-12 -6,-15 -6,-9 -15,-12 -39,-12l-212 0 0 53 212 0zm215 36c-21,21 -51,33 -131,33l-470 0 0 -305 464 0c74,0 107,12 125,30 27,27 27,66 3,90 -18,18 -42,27 -95,30 62,3 86,15 104,33 27,27 24,65 0,89l0 0zm-353 -544l-3 0 -1530 -383 1530 -386 3 0 1531 386 -1531 383zm-3 -123l3 0 897 -233c9,0 18,-6 24,-9 3,-6 6,-12 6,-18 0,-9 -3,-15 -6,-18 -3,-6 -12,-9 -24,-12l-900 -233 -896 233c-12,3 -21,6 -24,12 -3,3 -6,9 -6,18 0,6 3,12 6,18 6,3 15,9 24,9l896 233 0 0zm0 -155l-415 -108 415 -108 419 108 -419 108zm0 442l1890 -478c21,-6 39,-15 48,-27 12,-12 18,-27 18,-42 0,-18 -6,-33 -18,-48 -12,-9 -27,-15 -45,-21l-1893 -481 -1889 481c-18,6 -33,12 -45,21 -12,15 -18,30 -18,48 0,15 6,30 18,42 9,12 27,21 48,27l1886 478z"/>
   <ellipse class="fil2" cx="5410" cy="5804" rx="105" ry="100"/>
  </g>
 </g>
</svg>
