<?xml version="1.0" encoding="UTF-8"?>
<!DOCTYPE svg PUBLIC "-//W3C//DTD SVG 1.1//EN" "http://www.w3.org/Graphics/SVG/1.1/DTD/svg11.dtd">
<!-- Creator: CorelDRAW X7 -->
<svg xmlns="http://www.w3.org/2000/svg" xml:space="preserve" width="8.5in" height="11in" version="1.1" style="shape-rendering:geometricPrecision; text-rendering:geometricPrecision; image-rendering:optimizeQuality; fill-rule:evenodd; clip-rule:evenodd"
viewBox="0 0 8500 11000"
 xmlns:xlink="http://www.w3.org/1999/xlink">
 <defs>
  <style type="text/css">
   <![CDATA[
    .fil0 {fill:none}
    .fil1 {fill:#1D1D1B}
   ]]>
  </style>
 </defs>
 <g id="Layer_x0020_1">
  <metadata id="CorelCorpID_0Corel-Layer"/>
  <rect class="fil0" x="2167" y="4302" width="4167" height="2396"/>
  <g id="_820772256">
   <g id="layer1">
    <path class="fil1" d="M2314 6619c-47,-28 -53,-48 -55,-187l0 -136 85 0 0 109c0,121 12,156 52,156 48,0 56,-22 56,-147l0 -118 97 0 0 119c0,140 -10,174 -59,200 -42,22 -141,23 -176,4l0 0zm295 -154l0 -169 55 0c53,0 54,1 105,82l51 81 4 -81 4 -82 83 0 0 337 -45 0c-44,-1 -48,-3 -106,-100l-60 -99 -4 101 -3 98 -84 0 0 -168zm374 1l0 -170 76 1c155,1 226,53 226,164 0,113 -56,159 -208,169l-94 7 0 -171zm184 62c29,-26 29,-101 0,-127 -12,-11 -40,-25 -61,-28l-38 -7 0 199 38 -9c21,-3 49,-17 61,-28l0 0zm166 -63l0 -169 241 0 0 72 -72 0c-64,0 -72,2 -72,24 0,22 8,24 66,24 65,0 66,0 66,36 0,37 -1,37 -66,37 -63,0 -66,1 -66,30 0,29 3,30 72,30l72 0 0 84 -241 0 0 -168zm302 -2l0 -170 110 5c103,5 112,7 139,40 35,40 32,93 -8,131 -23,23 -22,24 25,84 26,32 47,65 47,70 0,6 -24,10 -53,10 -50,0 -56,-3 -97,-60 -25,-32 -50,-60 -56,-60 -6,0 -11,28 -11,60l0 60 -96 0 0 -170zm170 -42c13,-17 12,-22 -7,-36 -40,-29 -67,-22 -67,19 0,30 5,36 29,36 16,0 36,-8 45,-19zm282 192c5,-12 33,-88 63,-169l55 -148 103 0 54 148c30,81 58,157 63,169 7,17 1,20 -41,20 -46,0 -52,-3 -63,-36 -12,-32 -18,-36 -65,-36 -47,0 -53,4 -65,36 -11,33 -17,36 -63,36 -42,0 -48,-3 -41,-20zm186 -139c0,-8 -5,-26 -10,-38 -8,-22 -11,-20 -23,14 -12,35 -11,39 11,39 12,0 23,-8 22,-15zm182 -9l0 -169 82 0c99,0 167,18 184,48 19,36 14,89 -13,118 -13,15 -24,29 -24,33 0,5 20,31 43,59 22,29 42,58 42,66 0,7 -22,13 -53,13 -50,0 -55,-3 -93,-60 -53,-77 -71,-77 -71,0l0 60 -97 0 0 -168zm169 -43c21,-24 -4,-54 -43,-54 -25,0 -29,6 -29,36 0,30 4,36 29,36 15,0 35,-8 43,-18l0 0zm169 43l0 -169 110 0 32 73 33 74 36 -74c35,-73 35,-73 87,-73l52 0 0 337 -97 0 -1 -86 -1 -88 -18 45c-17,39 -24,45 -58,45 -34,0 -41,-6 -58,-45l-18 -45 -1 88 -2 86 -96 0 0 -168zm488 158c-13,-6 -37,-26 -54,-44 -26,-28 -30,-43 -30,-116 0,-77 2,-85 39,-122 32,-32 49,-38 108,-42 82,-5 118,10 157,68 46,67 31,180 -31,235 -29,27 -146,39 -189,21l0 0zm120 -81c54,-53 26,-174 -40,-174 -46,0 -67,31 -67,97 0,48 6,66 22,79 32,22 62,22 85,-2zm215 61l-39 -32 0 -275 85 0 0 89c0,127 9,163 43,171 54,13 65,-11 65,-141l0 -119 97 0 0 131c0,122 -3,135 -29,165 -24,29 -40,34 -107,39 -69,5 -80,2 -115,-28l0 0zm311 -138l0 -169 82 0c99,0 166,18 183,48 20,35 15,78 -12,112 -13,17 -24,34 -24,39 0,5 19,31 42,59 23,29 43,58 43,66 0,7 -21,13 -52,13 -49,0 -55,-4 -97,-60 -25,-32 -50,-60 -56,-60 -8,0 -13,28 -13,60l0 60 -96 0 0 -168zm169 -43c20,-24 -4,-54 -44,-54 -24,0 -29,6 -29,36 0,30 5,36 29,36 16,0 35,-8 44,-18l0 0zm-2835 -301c-151,-35 -357,-99 -529,-166 -142,-54 -136,-41 -67,-187 52,-108 164,-258 242,-324 70,-59 191,-140 244,-162 47,-19 47,-29 -1,-49 -71,-29 -214,-131 -287,-204 -80,-80 -167,-205 -210,-305 -53,-120 -57,-110 55,-154 240,-94 511,-172 682,-199 42,-6 50,-4 55,15 4,12 10,160 15,329l8 308 39 54c46,63 49,64 224,33 336,-61 660,-58 999,5 75,14 139,24 140,21 3,-2 24,-29 48,-56l44 -54 0 -663 64 8c187,26 503,132 631,214 41,26 50,40 58,82 9,61 0,122 -33,193 -34,75 -222,257 -344,332 -54,34 -98,62 -98,66 0,4 48,36 105,73 127,80 302,249 337,325 31,68 43,149 30,205 -7,34 -22,50 -75,82 -134,80 -424,175 -617,203l-58 7 0 -667 -52 -54 -51 -54 -132 24c-349,65 -676,65 -1025,0 -72,-14 -137,-22 -146,-18 -8,2 -32,29 -52,57l-36 54 -8 306c-5,169 -11,317 -13,329 -9,27 -31,26 -186,-9l0 0zm1212 -772c86,-25 211,-79 211,-91 0,-18 -173,-82 -276,-102 -127,-27 -381,-20 -484,12 -84,25 -205,79 -205,90 0,19 196,93 302,114 67,12 381,-3 452,-23z"/>
   </g>
  </g>
 </g>
</svg>
